<?xml version="1.0" encoding="utf-8"?>
<!-- Generator: Adobe Illustrator 16.0.0, SVG Export Plug-In . SVG Version: 6.00 Build 0)  -->
<!DOCTYPE svg PUBLIC "-//W3C//DTD SVG 1.1//EN" "http://www.w3.org/Graphics/SVG/1.1/DTD/svg11.dtd">
<svg version="1.1" id="Layer_1" xmlns="http://www.w3.org/2000/svg" xmlns:xlink="http://www.w3.org/1999/xlink" x="0px" y="0px"
	 width="353.677px" height="54.05px" viewBox="0 0 353.677 54.05" xml:space="preserve">
<g>
	<g>
		<path fill="#FFFFFF" d="M351.916,36.519c-3.912,0.489-5.869,0.815-5.869,0.979c-0.202,0.021-0.662,0.042-1.339,0.062
			c-0.048,0.866-0.108,1.694-0.18,2.487c2.151-0.004,3.357-0.007,3.476-0.007l4.304,0.195c0.652,0,1.108-0.782,1.369-2.348
			C353.677,37.203,353.09,36.747,351.916,36.519z"/>
		<path fill="#FFFFFF" d="M182.414,38.776l0.314,1.774c66.164-0.27,130.804-0.434,155.142-0.488
			c0.073-0.754,0.138-1.545,0.192-2.375C315.65,38.006,249.989,38.369,182.414,38.776z"/>
		<path fill="#FFFFFF" d="M96.739,39.331c-1.041,0.624-2.127,0.956-3.259,0.956c-0.333,0-0.671-0.029-1.005-0.084l-0.393-0.066
			c-0.78-0.133-1.488-0.389-2.129-0.756C38.568,39.764,0,40.18,0,40.627c0,0.837,0.651,1.358,1.956,1.565
			c2.671-0.718,88.867-1.257,174.555-1.616c-0.121-0.538-0.246-1.123-0.378-1.762C148.866,38.979,121.499,39.152,96.739,39.331z"/>
	</g>
	<g>
		<path fill="#FFFFFF" d="M19.864,8.803l0.783-0.098c1.162-0.131,1.804,0.326,1.924,1.369c-1.588,6.532-2.614,12.619-3.082,18.26
			c-0.011,2.097-0.608,3.212-1.793,3.341c-1.174,0.131-2.125-0.744-2.854-2.625l-3.831-16.042l-1.011-2.038
			c0.142-0.674,0.495-1.043,1.06-1.108c1.489-0.163,3.375,5.375,5.657,16.613C17.576,23.563,18.625,17.672,19.864,8.803z"/>
		<path fill="#FFFFFF" d="M28.814,12.651c1.848,0,3.581,2.565,5.201,7.695c0.869,4.391-0.435,6.999-3.913,7.825l-1.174,0.391h-0.391
			c-4.174,0-6.261-2.412-6.261-7.238V20.15c-0.076-2.771,1.386-5.271,4.386-7.499H28.814z M24.625,20.542v2.152
			c0,1.314,1.305,2.423,3.913,3.325h0.587c1.793,0,2.711-1.021,2.755-3.064c0.043-2.044-0.652-4.108-2.087-6.195l-0.782-0.587
			C26.163,16.726,24.701,18.183,24.625,20.542z"/>
		<path fill="#FFFFFF" d="M39.281,0c1.043,0.098,1.564,0.62,1.564,1.565v0.782c-0.401,9.771-0.519,16.833-0.35,21.186
			c0.168,4.354-0.117,7.073-0.856,8.161h-0.392c-1.174,0-1.761-0.848-1.761-2.545c0.533-12.455,0.805-21.911,0.815-28.367L39.281,0z
			"/>
		<path fill="#FFFFFF" d="M58.797,12.129h0.195c1.826,0.261,2.738,0.913,2.738,1.956c-0.358,1.239-0.537,3.108-0.537,5.608v1.564
			c0,3.109,0.564,4.82,1.695,5.136l0.195,0.782c-0.75,0.652-1.402,0.979-1.956,0.979h-0.783c-1.119-0.728-1.75-2.244-1.891-4.549
			l-0.195-0.195h-0.392c-0.87,3.348-2.997,5-6.383,4.956c-3.386-0.043-5.779-2.619-7.182-7.728c0-1.402-0.04-2.991-0.122-4.769
			c-0.081-1.777,0.416-2.666,1.492-2.666h0.195c1.043,0.065,1.369,2.283,0.979,6.652c0.956,3.543,2.353,5.473,4.189,5.787
			c1.837,0.315,3.983-2.125,6.439-7.32C57.552,14.194,57.992,12.129,58.797,12.129z"/>
		<path fill="#FFFFFF" d="M68.741,12.374c0.304,0.021,0.473,0.489,0.505,1.402l-1.108,8.168l-0.017,0.195l0.196,0.017
			c2.554-6.38,5.38-9.47,8.478-9.269s4.581,1.274,4.45,3.22c0.207,5.021,0.223,10.907,0.049,17.657
			c-0.282,0.576-0.56,0.879-0.831,0.912h-0.195c-1.565-0.098-2.114-3.771-1.646-11.021c0.738-6.184-0.419-8.556-3.473-7.116
			c-3.055,1.44-4.82,4.541-5.299,9.302c-0.218,3.511-0.718,5.244-1.5,5.201l-0.979-0.066c-1.174-0.076-1.483-4.494-0.929-13.253
			l0.049-0.783C66.697,13.808,67.447,12.287,68.741,12.374z"/>
		<path fill="#FFFFFF" d="M91.043,2.298c1.229,0.218,1.407,3.027,0.538,8.429l0.196,0.032c1.706,0.294,3.749,0.288,6.13-0.016
			l0.766,0.13c0.555,0.392,0.93,0.919,1.125,1.582l-0.065,0.391c-0.13,0.772-2.945,1.044-8.444,0.815l-0.294,1.729
			c-1.358,12.934-0.799,19.612,1.68,20.036l0.391,0.066c1.033,0.172,2.805-0.518,5.315-2.072l0.587,0.1l0.146,0.227l-0.032,0.18
			c-1.968,3.238-4.06,4.674-6.277,4.305l-0.391-0.066c-2.924-0.5-4.521-3.553-4.794-9.162c0.707-9.868,0.849-14.835,0.425-14.9
			l-0.196-0.033l-6.146,0.75c-0.945-0.685-1.342-1.478-1.189-2.38c0.185-1.087,3.016-1.668,8.493-1.744
			c0.207-4.065-0.026-6.157-0.7-6.277l-0.099-0.603C89.163,2.652,90.108,2.146,91.043,2.298z"/>
		<path fill="#FFFFFF" d="M101.379,12.805c3.043-1.081,5.467-0.869,7.271,0.637c1.804,1.505,2.679,2.839,2.625,4.002
			c-0.055,1.163-1.718,1.951-4.989,2.364c-3.521,0.543-5.445,1.092-5.771,1.646c0.446,5.391,5.413,6.429,14.901,3.113l0.195,0.017
			l0.163,0.587c1.142,1.25-1.269,2.462-7.23,3.635c-5.961,1.174-9.388-0.663-10.278-5.51
			C97.298,17.384,98.336,13.887,101.379,12.805z M100.646,17.672c4.238-0.381,6.369-0.767,6.391-1.158l0.032-0.587
			c-0.641-0.554-1.473-0.858-2.494-0.912C102.824,14.917,101.515,15.803,100.646,17.672z"/>
		<path fill="#FFFFFF" d="M120.942,12.805c3.043-1.081,5.467-0.869,7.271,0.637c1.804,1.505,2.679,2.839,2.625,4.002
			c-0.055,1.163-1.718,1.951-4.989,2.364c-3.521,0.543-5.445,1.092-5.771,1.646c0.446,5.391,5.413,6.429,14.901,3.113l0.195,0.017
			l0.163,0.587c1.142,1.25-1.269,2.462-7.23,3.635c-5.961,1.174-9.388-0.663-10.278-5.51
			C116.861,17.384,117.899,13.887,120.942,12.805z M120.209,17.672c4.238-0.381,6.369-0.767,6.391-1.158l0.032-0.587
			c-0.641-0.554-1.473-0.858-2.494-0.912C122.388,14.917,121.078,15.803,120.209,17.672z"/>
		<path fill="#FFFFFF" d="M153.1,9.195c1.212,0.141,1.753,0.793,1.623,1.956l-0.114,0.979c-0.609,0.38-2.169,0.788-4.68,1.223
			c-3.467,2.391-5.607,4.738-6.423,7.043l-0.815,3.195l0.18,5.658c-0.087,0.793-0.609,1.326-1.565,1.598
			c-1.217-0.143-2.163-3.881-2.837-11.217l-1.418-6.863c0.456-1.261,1.179-1.837,2.168-1.729l0.196,0.033
			c1.054,1.064,1.461,2.619,1.223,4.662c0.065,1.979,0.228,2.983,0.489,3.017c1.761-3.25,3.894-5.69,6.398-7.32
			C150.029,9.797,151.888,9.053,153.1,9.195z"/>
		<path fill="#FFFFFF" d="M171.009,16.238c1.174,0.228,1.761,0.685,1.761,1.369c-0.261,1.565-0.717,2.348-1.369,2.348l-4.304-0.195
			c-2.098,0-5.815,0.717-11.151,2.151c-1.305-0.206-1.956-0.728-1.956-1.564c0-1.326,3.717-2.37,11.15-3.131
			C165.14,17.052,167.097,16.726,171.009,16.238z"/>
		<path fill="#FFFFFF" d="M178.965,12.129c4.065,0,8.174,2.674,12.325,8.021l0.196,0.979c0,4.195-2.218,7.195-6.652,8.999
			c-2.988,0.729-4.88,1.316-5.673,1.762l2.151,12.129l-0.782,0.588h-0.587c-0.532,0-1.576-4.305-3.13-12.912
			c-0.076,0.01-0.799,0.01-2.168,0l-0.587-0.979v-0.393c0-0.781,0.853-1.346,2.56-1.695l0.195-0.195v-0.587
			c-0.207-6.435-0.598-9.651-1.174-9.651l-0.195,0.195h-0.392c-0.392-0.087-0.587-0.608-0.587-1.564v-0.196
			C174.466,13.629,175.966,12.129,178.965,12.129z M179.356,15.259c-0.392,0.619-0.587,1.793-0.587,3.521v4.5
			c0,3.521,0.392,5.281,1.174,5.281l0.195,0.196h0.196c5.478-1.347,8.217-3.434,8.217-6.26c0-2.38-2.218-4.598-6.652-6.651
			C180.933,15.455,180.085,15.259,179.356,15.259z"/>
		<path fill="#FFFFFF" d="M195.773,0c1.043,0.098,1.564,0.62,1.564,1.565v0.782c-0.401,9.771-0.519,16.833-0.35,21.186
			c0.168,4.354-0.117,7.073-0.856,8.161h-0.392c-1.174,0-1.761-0.848-1.761-2.545c0.533-12.455,0.805-21.911,0.815-28.367L195.773,0
			z"/>
		<path fill="#FFFFFF" d="M207.056,12.129c3.782,0.685,5.674,1.662,5.674,2.935c1.825,0.435,2.738,2.261,2.738,5.478
			c0.142,2.098,0.832,4.075,2.07,5.935l-2.348,0.587c-1.185,0-2.07-1.718-2.657-5.152h-0.195c-1.663,3.805-3.861,5.644-6.595,5.519
			s-4.644-1.834-5.73-5.127v-1.174c0-3.793,1.435-6.598,4.304-8.412L207.056,12.129z M202.36,22.498
			c1.511,2.131,3.021,2.918,4.532,2.364c1.511-0.555,2.804-2.646,3.88-6.276l0.196-0.979v-0.782c-1.359-0.913-2.533-1.37-3.521-1.37
			c-2.902,0-4.598,2.087-5.087,6.261V22.498z"/>
		<path fill="#FFFFFF" d="M223,12.374c0.304,0.021,0.473,0.489,0.505,1.402l-1.108,8.168l-0.017,0.195l0.196,0.017
			c2.554-6.38,5.38-9.47,8.478-9.269s4.581,1.274,4.45,3.22c0.207,5.021,0.223,10.907,0.049,17.657
			c-0.282,0.576-0.56,0.879-0.831,0.912h-0.195c-1.565-0.098-2.114-3.771-1.646-11.021c0.738-6.184-0.419-8.556-3.473-7.116
			c-3.055,1.44-4.82,4.541-5.299,9.302c-0.218,3.511-0.718,5.244-1.5,5.201l-0.979-0.066c-1.174-0.076-1.483-4.494-0.929-13.253
			l0.049-0.783C220.956,13.808,221.706,12.287,223,12.374z"/>
		<path fill="#FFFFFF" d="M240.688,12.374c0.304,0.021,0.473,0.489,0.505,1.402l-1.108,8.168l-0.017,0.195l0.196,0.017
			c2.554-6.38,5.38-9.47,8.478-9.269s4.581,1.274,4.45,3.22c0.207,5.021,0.223,10.907,0.049,17.657
			c-0.282,0.576-0.56,0.879-0.831,0.912h-0.195c-1.565-0.098-2.114-3.771-1.646-11.021c0.738-6.184-0.419-8.556-3.473-7.116
			c-3.055,1.44-4.82,4.541-5.299,9.302c-0.218,3.511-0.718,5.244-1.5,5.201l-0.979-0.066c-1.174-0.076-1.483-4.494-0.929-13.253
			l0.049-0.783C238.645,13.808,239.395,12.287,240.688,12.374z"/>
		<path fill="#FFFFFF" d="M258.409,12.805c3.043-1.081,5.467-0.869,7.271,0.637c1.804,1.505,2.679,2.839,2.625,4.002
			c-0.055,1.163-1.718,1.951-4.989,2.364c-3.521,0.543-5.445,1.092-5.771,1.646c0.446,5.391,5.413,6.429,14.901,3.113l0.195,0.017
			l0.163,0.587c1.142,1.25-1.269,2.462-7.23,3.635c-5.961,1.174-9.388-0.663-10.278-5.51
			C254.328,17.384,255.366,13.887,258.409,12.805z M257.676,17.672c4.238-0.381,6.369-0.767,6.391-1.158l0.032-0.587
			c-0.641-0.554-1.473-0.858-2.494-0.912C259.854,14.917,258.545,15.803,257.676,17.672z"/>
		<path fill="#FFFFFF" d="M290.566,9.195c1.212,0.141,1.753,0.793,1.623,1.956l-0.114,0.979c-0.609,0.38-2.169,0.788-4.68,1.223
			c-3.467,2.391-5.607,4.738-6.423,7.043l-0.815,3.195l0.18,5.658c-0.087,0.793-0.609,1.326-1.565,1.598
			c-1.217-0.143-2.163-3.881-2.837-11.217l-1.418-6.863c0.456-1.261,1.179-1.837,2.168-1.729l0.196,0.033
			c1.054,1.064,1.461,2.619,1.223,4.662c0.065,1.979,0.228,2.983,0.489,3.017c1.761-3.25,3.894-5.69,6.398-7.32
			C287.496,9.797,289.354,9.053,290.566,9.195z"/>
		<path fill="#FFFFFF" d="M293.037,28.432c1.814-0.305,2.709,0.142,2.682,1.337c-0.027,1.195-0.855,1.814-2.486,1.857
			C291.646,30.801,291.58,29.736,293.037,28.432z"/>
		<path fill="#FFFFFF" d="M304.465,12.651c1.848,0,3.581,2.565,5.201,7.695c0.869,4.391-0.435,6.999-3.913,7.825l-1.174,0.391
			h-0.391c-4.174,0-6.261-2.412-6.261-7.238V20.15c-0.076-2.771,1.386-5.271,4.386-7.499H304.465z M300.275,20.542v2.152
			c0,1.314,1.305,2.423,3.913,3.325h0.587c1.793,0,2.711-1.021,2.755-3.064c0.043-2.044-0.652-4.108-2.087-6.195l-0.782-0.587
			C301.813,16.726,300.352,18.183,300.275,20.542z"/>
		<path fill="#FFFFFF" d="M327.559,9.195c1.212,0.141,1.753,0.793,1.623,1.956l-0.114,0.979c-0.609,0.38-2.169,0.788-4.68,1.223
			c-3.467,2.391-5.607,4.738-6.423,7.043l-0.815,3.195l0.18,5.658c-0.087,0.793-0.609,1.326-1.565,1.598
			c-1.217-0.143-2.163-3.881-2.837-11.217l-1.418-6.863c0.456-1.261,1.179-1.837,2.168-1.729l0.196,0.033
			c1.054,1.064,1.461,2.619,1.223,4.662c0.065,1.979,0.228,2.983,0.489,3.017c1.761-3.25,3.894-5.69,6.398-7.32
			C324.488,9.797,326.347,9.053,327.559,9.195z"/>
		<path fill="#FFFFFF" d="M335.979,14.02c1.348,0,3.369,0.457,6.065,1.37c0.912,0,1.369,0.456,1.369,1.369
			c-0.37,4.901-0.555,9.885-0.555,14.95c0,10.934-1.358,17.469-4.075,19.604c-2.718,2.137-5.671,3.021-8.861,2.658
			c-3.189-0.365-5.854-2.307-7.996-5.828l-0.195-0.979c0.261-0.783,0.521-1.174,0.782-1.174h0.195c0.305,0,1.209,0.881,2.715,2.641
			c1.505,1.762,3.828,2.609,6.97,2.543c3.141-0.064,5.325-1.727,6.554-4.988c0.913-3.814,1.369-9.488,1.369-17.02
			c-0.131-1.467-0.326-2.38-0.587-2.739c-3.805,2.967-7.011,4.516-9.619,4.645c-2.608,0.131-3.912-1.174-3.912-3.912
			c0.913-5.228,2.355-8.725,4.328-10.491C332.498,14.904,334.315,14.02,335.979,14.02z M329.719,22.881
			c-1.381,3.689-0.895,5.537,1.459,5.543c2.353,0.005,4.942-1.835,7.769-5.519l0.945-3.408c-0.782-1.435-2.087-2.151-3.913-2.151
			C333.186,17.346,331.099,19.191,329.719,22.881z"/>
	</g>
</g>
</svg>
